<?xml version="1.0" encoding="iso-8859-1"?>
<!-- Generator: Adobe Illustrator 19.0.0, SVG Export Plug-In . SVG Version: 6.00 Build 0)  -->
<svg version="1.1" id="Capa_1" xmlns="http://www.w3.org/2000/svg" xmlns:xlink="http://www.w3.org/1999/xlink" x="0px" y="0px"
	 viewBox="0 0 512 512" style="enable-background:new 0 0 512 512;" xml:space="preserve">
<path style="fill:#FFE5DA;" d="M431.995,184.009c-8.837,0-16,7.164-16,16v103.997h31.999V200.008
	C447.995,191.172,440.831,184.009,431.995,184.009z"/>
<path style="fill:#FFCBB6;" d="M439.995,186.167c-2.355-1.364-5.082-2.158-8-2.158c-8.837,0-16,7.164-16,16v103.997h16V200.008
	C431.995,194.09,435.217,188.935,439.995,186.167z"/>
<path style="fill:#FFE5DA;" d="M399.996,216.008c-8.837,0-16,7.164-16,16v103.997h31.999V232.007
	C415.996,223.171,408.832,216.008,399.996,216.008z"/>
<path style="fill:#FFCBB6;" d="M407.996,218.166c-2.355-1.364-5.082-2.158-8-2.158c-8.837,0-16,7.164-16,16v103.997h16V232.007
	C399.996,226.089,403.218,220.934,407.996,218.166z"/>
<path style="fill:#FFE5DA;" d="M383.996,272.006c0-8.836-7.163-16-16-16s-16,7.164-16,16v79.998h31.999V272.006z"/>
<path style="fill:#FFCBB6;" d="M375.997,258.165c-2.355-1.364-5.082-2.158-8-2.158c-8.837,0-16,7.164-16,16v79.998h16v-79.998
	C367.997,266.088,371.219,260.933,375.997,258.165z"/>
<g>
	<path style="fill:#FFEEE7;" d="M307.691,359.799l76.306-31.794l95.997-39.999v31.999l-47.999,71.998l-55.998,31.999V512h-87.998
		V389.336C287.999,376.419,295.767,364.767,307.691,359.799z"/>
	<path style="fill:#FFEEE7;" d="M479.994,312.005v-80.45c0-9.093-7.585-16.414-16.773-15.982
		c-8.606,0.405-15.227,7.818-15.227,16.434v79.998"/>
	<path style="fill:#FFEEE7;" d="M383.996,327.703l42.285-42.926c6.201-6.295,16.332-6.371,22.626-0.17
		c6.295,6.201,6.371,16.332,0.17,22.626l-42.454,43.097L383.996,327.703z"/>
</g>
<g>
	<path style="fill:#FFE5DA;" d="M448.908,284.607c-1.95-1.921-4.269-3.236-6.724-3.954c1.579,5.391,0.274,11.453-3.948,15.739
		l-37.114,37.676c-2.956,3-2.937,7.823,0.041,10.801l0,0c3.01,3.01,7.895,2.992,10.883-0.041l37.033-37.594
		C455.278,300.939,455.202,290.809,448.908,284.607z"/>
	<path style="fill:#FFE5DA;" d="M463.994,215.578v96.427l-39.999,63.998l-63.998,39.999V512h16v-87.998l55.998-31.999l47.999-71.998
		v-88.45C479.994,222.721,472.828,215.581,463.994,215.578z"/>
	<path style="fill:#FFE5DA;" d="M80.005,184.009c8.837,0,16,7.164,16,16v103.997H64.005V200.008
		C64.005,191.172,71.168,184.009,80.005,184.009z"/>
</g>
<path style="fill:#FFCBB6;" d="M72.005,186.167c2.355-1.364,5.082-2.158,8-2.158c8.837,0,16,7.164,16,16v103.997h-16V200.008
	C80.005,194.09,76.783,188.935,72.005,186.167z"/>
<path style="fill:#FFE5DA;" d="M112.004,216.008c8.837,0,16,7.164,16,16v103.997H96.004V232.007
	C96.004,223.171,103.167,216.008,112.004,216.008z"/>
<path style="fill:#FFCBB6;" d="M104.004,218.166c2.355-1.364,5.082-2.158,8-2.158c8.837,0,16,7.164,16,16v103.997h-16V232.007
	C112.004,226.089,108.782,220.934,104.004,218.166z"/>
<path style="fill:#FFE5DA;" d="M128.003,272.006c0-8.836,7.163-16,16-16c8.837,0,16,7.164,16,16v79.998h-31.999V272.006z"/>
<path style="fill:#FFCBB6;" d="M136.003,258.165c2.355-1.364,5.082-2.158,8-2.158c8.837,0,16,7.164,16,16v79.998h-16v-79.998
	C144.003,266.088,140.781,260.933,136.003,258.165z"/>
<g>
	<path style="fill:#FFEEE7;" d="M204.309,359.799l-76.306-31.794l-95.997-39.999v31.999l47.999,71.998l63.998,31.999V512h79.998
		V389.336C224.001,376.419,216.233,364.767,204.309,359.799z"/>
	<path style="fill:#FFEEE7;" d="M32.006,312.005v-80.45c0-9.093,7.585-16.414,16.773-15.982c8.606,0.405,15.227,7.818,15.227,16.434
		v79.998"/>
	<path style="fill:#FFEEE7;" d="M128.003,327.703l-42.285-42.926c-6.201-6.295-16.332-6.371-22.626-0.17
		c-6.295,6.201-6.371,16.332-0.17,22.626l42.454,43.097L128.003,327.703z"/>
</g>
<g>
	<path style="fill:#FFE5DA;" d="M63.092,284.607c1.95-1.921,4.269-3.236,6.724-3.954c-1.579,5.391-0.274,11.453,3.948,15.739
		l37.35,37.915c2.825,2.868,2.808,7.477-0.039,10.324l0,0c-3.141,3.141-8.239,3.122-11.356-0.043l-36.797-37.354
		C56.721,300.939,56.797,290.809,63.092,284.607z"/>
	<path style="fill:#FFE5DA;" d="M48.006,215.578v96.427l39.999,63.998l71.998,39.999V512h-16v-87.998l-63.998-31.999l-47.999-71.998
		v-88.45C32.006,222.721,39.172,215.581,48.006,215.578z"/>
</g>
<path style="fill:#FF97A4;" d="M412.624,68.631c-5.189-24.006-17.947-43.976-35.925-56.227
	c-17.1-11.655-37.295-15.187-58.402-10.212c-21.184,4.992-42.267,18.206-62.759,39.314c-20.492-21.108-41.576-34.322-62.759-39.314
	c-21.108-4.975-41.303-1.443-58.402,10.211c-17.979,12.253-30.736,32.222-35.925,56.228c-5.333,24.672-1.852,51.096,9.802,74.402
	c23.091,46.184,61.195,77.041,89.095,94.795c30.127,19.171,54.633,27.445,55.661,27.788c1.632,0.545,3.427,0.545,5.06,0
	c1.028-0.343,25.534-8.617,55.661-27.788c27.898-17.754,66.002-48.612,89.095-94.795C414.476,119.727,417.956,93.303,412.624,68.631
	z"/>
<path style="fill:#FF7D8D;" d="M230.279,237.828c-27.899-17.754-66.002-48.612-89.095-94.795
	c-11.654-23.306-15.135-49.73-9.802-74.402c5.189-24.006,17.947-43.976,35.925-56.228c7.427-5.062,15.439-8.587,23.854-10.552
	c-20.521-4.423-40.125-0.804-56.787,10.552c-17.979,12.253-30.736,32.222-35.925,56.228c-5.333,24.672-1.852,51.096,9.802,74.402
	c23.091,46.184,61.195,77.041,89.095,94.795c30.127,19.171,54.633,27.445,55.661,27.788c1.632,0.545,3.427,0.545,5.06,0
	c0.461-0.154,5.649-1.907,13.937-5.515C261.803,255.661,246.901,248.407,230.279,237.828z"/>
<g>
</g>
<g>
</g>
<g>
</g>
<g>
</g>
<g>
</g>
<g>
</g>
<g>
</g>
<g>
</g>
<g>
</g>
<g>
</g>
<g>
</g>
<g>
</g>
<g>
</g>
<g>
</g>
<g>
</g>
</svg>
