<?xml version="1.0" encoding="iso-8859-1"?>
<!-- Generator: Adobe Illustrator 19.0.0, SVG Export Plug-In . SVG Version: 6.00 Build 0)  -->
<svg version="1.1" id="Capa_1" xmlns="http://www.w3.org/2000/svg" xmlns:xlink="http://www.w3.org/1999/xlink" x="0px" y="0px"
	 viewBox="0 0 422.449 422.449" style="enable-background:new 0 0 422.449 422.449;" xml:space="preserve">
<path style="fill:#FFFFFF;" d="M207.21,308.424c-47.2-25.6-71.2-52-69.6-78.4c1.6-41.6,60.8-68.8,72.8-74.4
	c12.8-4.8,24.8-13.6,33.6-24l7.2-9.6l5.6,10.4c21.6,38.4,30.4,72.8,25.6,101.6l-0.8,4.8l-4,1.6l6.4-2.4l-8,18.4
	c-15.2,36-52.8,49.6-63.2,53.6l-3.2,0.8L207.21,308.424z M228.01,241.224c-9.6,0-16.8,7.2-16.8,16.8c0,9.6,7.2,16.8,16.8,16.8
	c8.8,0,16.8-7.2,16.8-16v-4.8h0.8l-4-5.6C238.41,243.624,233.61,241.224,228.01,241.224L228.01,241.224z"/>
<g>
	<path style="fill:#2AC6BE;" d="M96.01,306.025c-3.2-27.2-4-54.4-4-81.6v-1.6l0.8-1.6v-1.6v-1.6c2.4-68.8,16-118.4,42.4-148
		c17.6-20,42.4-31.2,68.8-30.4h1.6c12.8,0,24.8,2.4,36.8,5.6l6.4,2.4l-0.8,6.4c0,6.4,0.8,13.6,3.2,19.2c4,13.6,8,29.6-0.8,45.6v0.8
		v0.8c-1.6,4-9.6,20.8-40,34.4c-7.2,3.2-71.2,32-72.8,74.4c0.8,16.8,7.2,32,20,43.2l4,4l-3.2,4.8v17.6l-6.4,1.6
		c-15.2,3.2-30.4,7.2-45.6,12l-9.6,3.2L96.01,306.025z"/>
	<path style="fill:#2AC6BE;" d="M315.21,312.424c-14.4-4.8-29.6-8.8-44.8-12l-6.4-1.6v-16v-0.8l-0.8-4l2.4-2.4
		c4.8-5.6,8.8-12.8,12-20c1.6-4,3.2-8.8,4-13.6l0.8-4l26.4-11.2h1.6c3.2,0,7.2-0.8,10.4-1.6l10.4-2.4v10.4c0,24-1.6,48.8-4.8,72.8
		l-0.8,9.6L315.21,312.424z"/>
	<circle style="fill:#2AC6BE;" cx="228.01" cy="258.025" r="16.8"/>
	<path style="fill:#2AC6BE;" d="M284.01,225.224c1.6-28.8-8.8-63.2-32-101.6l-2.4-3.2l1.6-4c4.8-13.6,4.8-28.8,0-42.4
		c-0.8-4-2.4-8-2.4-12l-2.4-16l14.4,7.2c10.4,5.6,20.8,13.6,28.8,22.4c25.6,29.6,40,76,41.6,139.2v5.6l-5.6,1.6
		c-4.8,1.6-10.4,3.2-16,3.2l-13.6,5.6l-12.8,7.2L284.01,225.224z"/>
</g>
<path style="fill:#B7F3F9;" d="M211.21,409.224v-58.4l7.2-0.8c25.6-1.6,44.8-12.8,44.8-26.4v-24l9.6,2.4c40,8,134.4,34.4,140.8,98.4
	l0.8,8.8H211.21z"/>
<path style="fill:#FFFFFF;" d="M211.21,350.025c-28.8,0-52.8-12-52.8-26.4v-48.8l12.8,10.4c12,9.6,24.8,17.6,38.4,24.8
	c14.4-4,28-11.2,40-20l12.8-10.4v44C264.01,338.025,240.01,350.025,211.21,350.025z"/>
<path style="fill:#B7F3F9;" d="M7.21,409.224l0.8-8.8c6.4-64,100.8-90.4,140.8-98.4l9.6-2.4v24c0,13.6,19.2,24.8,44.8,26.4l7.2,0.8
	v58.4H7.21z"/>
<path style="fill:#082B33;" d="M332.81,310.824c3.2-28,4.8-56,4.8-84c6.4-4,12.8-8.8,17.6-15.2c12.8-18.4,13.6-44,3.2-76.8
	c-0.8-1.6-1.6-3.2-3.2-4l-5.6-4c0.8-29.6-9.6-59.2-28.8-81.6c-24-26.4-60.8-40-109.6-40l0,0c-48.8,0-85.6,13.6-109.6,40
	c-19.2,22.4-29.6,52-28.8,81.6l-5.6,4c-1.6,0.8-2.4,2.4-3.2,4c-17.6,56.8,3.2,81.6,20.8,92c-0.8,28,0.8,56.8,4.8,84
	c-43.2,16.8-90.4,47.2-89.6,98.4c0,4.8,3.2,8,8,8h406.4c4.8,0,8-3.2,8-8C424.01,358.025,376.01,327.624,332.81,310.824z
	 M84.81,206.824c-16-16-12.8-43.2-6.4-64.8l7.2-4.8c2.4-1.6,4-4.8,3.2-7.2c-1.6-27.2,7.2-53.6,24.8-74.4
	c20.8-22.4,53.6-34.4,97.6-34.4s76.8,12,97.6,35.2c17.6,20.8,26.4,47.2,24.8,74.4c0,3.2,0.8,5.6,3.2,7.2l7.2,4.8
	c8,26.4,8,47.2-1.6,60c-1.6,1.6-2.4,3.2-4,4.8c-2.4-60.8-16.8-106.4-42.4-136c-11.2-12.8-26.4-23.2-42.4-29.6h-0.8
	c-14.4-5.6-30.4-8.8-45.6-8.8c-29.6-1.6-57.6,11.2-76.8,32.8C98.41,101.224,87.21,157.224,84.81,206.824L84.81,206.824z
	 M271.21,280.424c5.6-6.4,9.6-13.6,12.8-21.6c2.4-4.8,4-9.6,4.8-14.4l21.6-8.8c4,0,8-0.8,12-2.4c0,24-1.6,48-4.8,72
	c-15.2-4.8-30.4-8.8-45.6-12v-11.2C272.01,281.224,271.21,281.224,271.21,280.424L271.21,280.424z M228.01,232.424
	c-13.6,0-24.8,11.2-24.8,24.8c0,13.6,11.2,24.8,24.8,24.8c12.8,0,24-9.6,24.8-23.2l17.6-7.2c-14.4,32.8-48.8,45.6-58.4,48.8
	c-44-24-66.4-48-65.6-71.2c1.6-37.6,60.8-64,68-67.2c14.4-5.6,26.4-14.4,36.8-26.4c20.8,37.6,28.8,69.6,24.8,96.8l-26.4,11.2
	C244.01,237.224,236.01,233.224,228.01,232.424L228.01,232.424z M236.81,257.224c0,4.8-4,8.8-8.8,8.8s-8.8-4-8.8-8.8s4-8.8,8.8-8.8
	l0,0C232.81,248.424,236.81,253.224,236.81,257.224C236.81,258.025,236.81,258.025,236.81,257.224L236.81,257.224z M100.81,219.624
	c1.6-50.4,10.4-108.8,40-143.2c16-18.4,40-28.8,64.8-27.2c12,0,23.2,1.6,35.2,5.6c0,7.2,0.8,15.2,3.2,22.4c3.2,13.6,7.2,27.2,0,40
	c0,0,0,0,0,0.8v0.8c0,0.8-6.4,16.8-35.2,29.6c-12.8,5.6-76,35.2-77.6,80.8c-0.8,16.8,7.2,32.8,22.4,48.8c-0.8,0.8-0.8,2.4-0.8,4
	v11.2c-16,3.2-31.2,7.2-46.4,12c-3.2-26.4-4-53.6-4-80.8C100.81,222.824,100.81,221.224,100.81,219.624L100.81,219.624z
	 M259.21,120.424c5.6-15.2,5.6-32.8,0-48c-0.8-4-2.4-8-2.4-11.2c9.6,5.6,19.2,12,26.4,20.8c24.8,28,37.6,72.8,39.2,134.4
	c-4,1.6-8.8,2.4-13.6,3.2c-0.8,0-1.6,0-3.2,0.8l-13.6,5.6C293.61,195.624,282.41,160.424,259.21,120.424z M203.21,401.224H16.01
	c6.4-60,104-85.6,134.4-92v14.4c0,18.4,22.4,32,52.8,34.4V401.224z M166.41,323.624v-32c12.8,9.6,25.6,18.4,40,25.6
	c0.8,0.8,2.4,0.8,4,0.8h1.6c16-4,30.4-12,43.2-21.6v28c0,8-17.6,18.4-44.8,18.4S166.41,330.824,166.41,323.624z M219.21,401.224
	v-43.2c30.4-2.4,52.8-16,52.8-34.4v-13.6c30.4,6.4,128,31.2,134.4,92L219.21,401.224z"/>
<g>
</g>
<g>
</g>
<g>
</g>
<g>
</g>
<g>
</g>
<g>
</g>
<g>
</g>
<g>
</g>
<g>
</g>
<g>
</g>
<g>
</g>
<g>
</g>
<g>
</g>
<g>
</g>
<g>
</g>
</svg>
