<?xml version="1.0" encoding="iso-8859-1"?>
<!-- Generator: Adobe Illustrator 19.0.0, SVG Export Plug-In . SVG Version: 6.00 Build 0)  -->
<svg version="1.1" id="Layer_1" xmlns="http://www.w3.org/2000/svg" xmlns:xlink="http://www.w3.org/1999/xlink" x="0px" y="0px"
	 viewBox="0 0 512 512" style="enable-background:new 0 0 512 512;" xml:space="preserve">
<g>
	<path style="fill:#F4D853;" d="M256.001,73.505c-44.235,0-80.221,35.988-80.221,80.221c0,44.236,35.986,80.221,80.221,80.221
		s80.221-35.985,80.221-80.221C336.222,109.494,300.236,73.505,256.001,73.505z"/>
	<path style="fill:#F4D853;" d="M99.235,166.673c-31.723,0-57.529,25.809-57.529,57.529c0,31.721,25.806,57.529,57.529,57.529
		c31.721,0,57.529-25.807,57.529-57.529C156.764,192.482,130.958,166.673,99.235,166.673z"/>
</g>
<path style="fill:#E9A440;" d="M412.763,166.673c-31.723,0-57.529,25.809-57.529,57.529c0,31.721,25.806,57.529,57.529,57.529
	c31.721,0,57.529-25.807,57.529-57.529C470.292,192.482,444.485,166.673,412.763,166.673z"/>
<path style="fill:#254186;" d="M385.257,354.277c0-3.436-0.924-6.811-2.676-9.77C356.212,299.967,307.708,272.3,256,272.3
	s-100.213,27.669-126.585,72.206c-1.751,2.958-2.676,6.333-2.676,9.771v65.041c0,10.592,8.586,19.176,19.176,19.176h220.166
	c5.086,0,9.964-2.02,13.559-5.616c3.597-3.597,5.617-8.475,5.617-13.56V354.277z"/>
<path style="fill:#1D3366;" d="M385.257,354.277c0-3.436-0.924-6.811-2.676-9.77C356.212,299.967,307.708,272.3,256,272.3v166.195
	h110.081c5.086,0,9.964-2.02,13.559-5.616c3.597-3.597,5.617-8.475,5.617-13.56V354.277z"/>
<path style="fill:#E9A440;" d="M336.222,153.726c0-44.233-35.986-80.221-80.221-80.221v160.442
	C300.236,233.947,336.222,197.962,336.222,153.726z"/>
<path style="fill:#A8DA64;" d="M99.235,320.083C44.516,320.083,0,364.601,0,419.318c0,10.592,8.586,19.176,19.176,19.176h160.12
	c10.59,0,19.176-8.585,19.176-19.176C198.472,364.601,153.955,320.083,99.235,320.083z"/>
<path style="fill:#78B86D;" d="M412.765,320.083c-54.719,0-99.235,44.517-99.235,99.235c0,10.592,8.586,19.176,19.176,19.176
	h160.117c10.59,0,19.176-8.585,19.176-19.176C512,364.601,467.484,320.083,412.765,320.083z"/>
<g>
</g>
<g>
</g>
<g>
</g>
<g>
</g>
<g>
</g>
<g>
</g>
<g>
</g>
<g>
</g>
<g>
</g>
<g>
</g>
<g>
</g>
<g>
</g>
<g>
</g>
<g>
</g>
<g>
</g>
</svg>
