<?xml version="1.0" encoding="utf-8"?>
<!-- Generator: Adobe Illustrator 16.0.0, SVG Export Plug-In . SVG Version: 6.00 Build 0)  -->
<!DOCTYPE svg PUBLIC "-//W3C//DTD SVG 1.1//EN" "http://www.w3.org/Graphics/SVG/1.1/DTD/svg11.dtd">
<svg version="1.1" id="Capa_1" xmlns="http://www.w3.org/2000/svg" xmlns:xlink="http://www.w3.org/1999/xlink" x="0px" y="0px"
	 width="569.5px" height="556.5px" viewBox="0 1 569.5 556.5" enable-background="new 0 1 569.5 556.5" xml:space="preserve">
<linearGradient id="SVGID_1_" gradientUnits="userSpaceOnUse" x1="4.9033" y1="281.5" x2="564.1973" y2="281.5">
	<stop  offset="0" style="stop-color:#FFFFFF"/>
	<stop  offset="0" style="stop-color:#15E1FF"/>
	<stop  offset="0.4433" style="stop-color:#2A91FF"/>
	<stop  offset="0.734" style="stop-color:#547CFF"/>
	<stop  offset="1" style="stop-color:#0159AE"/>
</linearGradient>
<path fill="url(#SVGID_1_)" d="M423.74,344.077c36.63,0,66.43-23.971,66.43-53.438c0-29.464-29.8-53.436-66.43-53.436
	c-36.623,0-66.422,23.972-66.422,53.436C357.318,320.106,387.117,344.077,423.74,344.077z M423.74,266.677
	c16.426,0,29.792,10.751,29.792,23.963c0,13.215-13.364,23.965-29.792,23.965c-16.422,0-29.784-10.75-29.784-23.965
	C393.956,277.428,407.318,266.677,423.74,266.677z M171.14,135.399c42.118,0,76.385-27.566,76.385-61.448
	c0-33.885-34.267-61.451-76.385-61.451c-42.118,0-76.387,27.565-76.387,61.45C94.753,107.833,129.021,135.399,171.14,135.399z
	 M171.14,41.973c21.918,0,39.749,14.345,39.749,31.977c0,17.631-17.832,31.975-39.749,31.975c-21.917,0-39.748-14.343-39.748-31.975
	C131.39,56.318,149.222,41.973,171.14,41.973z M219.887,535.759c0,8.14-8.201,14.736-18.319,14.736h-49.391
	c-0.034,0-0.066,0.003-0.099,0.003c-5.692,0-10.777-2.09-14.137-5.366c-2.613-2.546-4.184-5.813-4.184-9.374
	c0-0.023,0.003-0.044,0.003-0.064v-213.06l-100.006-37.3c-6.383-2.379-10.505-7.488-10.613-13.146L22.35,230.32
	c-0.004-0.223-0.001-0.445,0.006-0.669c1.792-47.635,36.732-78.415,89.018-78.415c82.837,0,114.405,37.125,137.49,71.92
	l68.905,103.856c4.764,7.179,1.39,16.105-7.534,19.938c-2.746,1.18-5.702,1.739-8.609,1.739c-6.546,0-12.877-2.83-16.174-7.8
	l-68.905-103.855c-20.447-30.817-42.471-56.326-105.17-56.326c-45.28,0-51.747,34.358-52.386,49.512l0.61,32.268l74.159,27.66
	v-43.601c0-8.139,8.2-14.737,18.318-14.737c10.118,0,18.319,6.598,18.319,14.737v57.264l32.248,12.026
	c9.179,3.423,13.17,12.184,8.914,19.57c-3.097,5.376-9.716,8.539-16.63,8.539c-2.582,0-5.201-0.44-7.691-1.37l-16.838-6.281v184.725
	h31.171C211.687,521.021,219.887,527.621,219.887,535.759z M545.877,366.552h-79.113c-0.03,0-0.064-0.003-0.096-0.003
	c-0.034,0-0.065,0.003-0.099,0.003h-85.65c-0.034,0-0.067-0.003-0.101-0.003c-0.032,0-0.063,0.003-0.096,0.003h-79.11
	c-10.118,0-18.319,6.598-18.319,14.736c0,8.141,8.201,14.737,18.319,14.737h60.889v124.996h-29.308
	c-10.117,0-18.319,6.598-18.319,14.737s8.202,14.736,18.319,14.736h47.529c0.032,0,0.063,0.003,0.096,0.003
	c5.694,0,10.78-2.09,14.139-5.366c2.613-2.546,4.186-5.813,4.186-9.374c0-0.023-0.004-0.044-0.004-0.064V481.84h49.212v53.921
	c0,8.14,8.2,14.736,18.318,14.736c0.033,0,0.065-0.003,0.099-0.003h47.524c10.118,0,18.319-6.597,18.319-14.736
	s-8.201-14.737-18.319-14.737h-29.305V396.023h60.893c10.117,0,18.317-6.597,18.317-14.736
	C564.197,373.148,555.995,366.552,545.877,366.552z M448.35,452.369h-49.214v-56.344h49.214V452.369z M91.033,535.759
	c0,3.562-1.568,6.828-4.184,9.375c-3.36,3.276-8.445,5.366-14.137,5.366c-0.033,0-0.065-0.003-0.098-0.003H23.222
	c-10.119,0-18.319-6.597-18.319-14.736s8.2-14.738,18.319-14.738h31.171V386.419c0-8.14,8.2-14.736,18.318-14.736
	c10.117,0,18.318,6.597,18.318,14.736v149.277C91.029,535.718,91.033,535.735,91.033,535.759z"/>
</svg>
