<?xml version="1.0" encoding="iso-8859-1"?>
<!-- Generator: Adobe Illustrator 19.0.0, SVG Export Plug-In . SVG Version: 6.00 Build 0)  -->
<svg xmlns="http://www.w3.org/2000/svg" xmlns:xlink="http://www.w3.org/1999/xlink" version="1.1" id="Capa_1" x="0px" y="0px" viewBox="0 0 512.002 512.002" style="enable-background:new 0 0 512.002 512.002;" xml:space="preserve" width="512px" height="512px">
<g>
	<g>
		<path d="M469.024,302.884c-3.153-1.489-6.497-2.331-9.875-2.53V111.642c8.634-3.825,16.512-12.652,23.158-26.087    c6.617-13.376,11.063-29.971,11.063-41.295c0-5.543-4.495-10.038-10.038-10.038s-10.038,4.495-10.038,10.038    c0,18.497-15.142,49.479-24.183,49.479c-3.25,0-9.393-5.346-15.201-17.086c-5.897-11.919-8.981-25.318-8.981-32.393    c0-13.334,10.849-24.183,24.183-24.183c5.543,0,10.038-4.495,10.038-10.038s-4.495-10.038-10.038-10.038    c-24.405,0-44.259,19.854-44.259,44.259c0,18.524,12.713,57.617,34.221,67.331v157.186c-0.444-1.745-1.341-3.357-2.641-4.648    c-6.318-6.28-22.387-20.888-35.083-20.888c-5.41,0-10.462,1.547-14.748,4.216c-7.959-12.725-22.091-21.21-38.174-21.21    c-16.087,0-30.222,8.487-38.183,21.211c-4.286-2.669-9.34-4.217-14.75-4.217c-12.697,0-28.764,14.608-35.083,20.888    c-1.896,1.884-2.961,4.447-2.961,7.12s1.066,5.236,2.961,7.12c6.319,6.28,22.387,20.888,35.083,20.888    c5.411,0,10.464-1.548,14.75-4.217c0.339,0.542,0.686,1.077,1.047,1.603c-7.378,1.348-14.032,5.547-18.414,11.796    c-0.099,0.142-0.194,0.285-0.286,0.433l-36.575,58.336l-36.6-58.376c-0.092-0.147-0.188-0.291-0.286-0.433    c-4.384-6.25-11.037-10.449-18.418-11.796c4.966-7.236,7.879-15.984,7.879-25.403c0-24.815-20.192-45.002-45.012-45.002    c-24.815,0-45.002,20.187-45.002,45.002c0,9.42,2.913,18.169,7.878,25.404c-7.386,1.349-14.038,5.552-18.412,11.806    c-0.435,0.621-0.797,1.289-1.081,1.992l-3.614,8.941l-30.416-13.365V111.641c8.633-3.825,16.512-12.652,23.158-26.087    c6.617-13.376,11.063-29.971,11.063-41.295C107.15,19.854,87.295,0,62.891,0S18.631,19.854,18.631,44.259    c0,18.524,12.713,57.617,34.221,67.331v188.724c-3.379,0.199-6.722,1.04-9.875,2.53c-6.477,3.057-11.377,8.453-13.8,15.203    c-1.05,2.93-1.582,5.977-1.582,9.056c0,11.013,6.808,20.943,17.025,24.959l67.207,35.517V425.9v76.021    c0,5.543,4.495,10.038,10.038,10.038h41.71h41.721c5.543,0,10.038-4.495,10.038-10.038V425.9v-22.952l1.392,2.471    c0.161,0.285,0.335,0.563,0.523,0.831c8.48,12.113,25.237,15.071,37.361,6.585c0.468-0.328,0.923-0.673,1.365-1.028    c0.461,0.37,0.932,0.73,1.419,1.072c5.868,4.114,12.988,5.695,20.041,4.449c7.052-1.243,13.2-5.158,17.311-11.022    c0.189-0.271,0.365-0.55,0.527-0.837l1.391-2.471v22.954v76.011c0,5.543,4.495,10.038,10.038,10.038h41.721h41.71    c5.543,0,10.038-4.495,10.038-10.038v-76.011v-38.334l67.207-35.517c10.216-4.015,17.025-13.946,17.025-24.959    c0-3.079-0.532-6.126-1.584-9.063C480.401,311.338,475.501,305.941,469.024,302.884z M295.583,279.182    c-2.263-0.214-7.508-3.505-13.017-7.929c5.487-4.398,10.759-7.727,12.925-7.934c4.368,0,7.921,3.558,7.921,7.93    C303.413,275.621,299.858,279.179,295.583,279.182z M163.576,246.273c13.749,0,24.935,11.182,24.935,24.925    c0,13.749-11.187,24.935-24.935,24.935c-13.744,0-24.925-11.187-24.925-24.935C138.651,257.455,149.832,246.273,163.576,246.273z     M47.69,76.652c-5.897-11.92-8.981-25.318-8.981-32.393c0-13.334,10.849-24.183,24.183-24.183s24.183,10.849,24.183,24.183    c0,18.497-15.142,49.479-24.183,49.479C59.64,93.739,53.498,88.392,47.69,76.652z M245.961,390.866v0.01    c-0.004,2.227-1.056,4.24-2.874,5.516c-2.94,2.058-6.969,1.435-9.163-1.351l-19.882-35.304c-2.239-3.977-6.883-5.946-11.292-4.784    c-4.414,1.157-7.493,5.147-7.493,9.71v61.234v65.986h-21.642V425.9c0-5.543-4.495-10.038-10.038-10.038    s-10.038,4.495-10.038,10.038v65.983h-21.633V425.9v-61.254c0-5.491-4.412-9.963-9.902-10.037    c-0.047-0.001-0.092-0.001-0.14-0.001c-5.427,0-9.884,4.324-10.031,9.766l-0.014,0.491l-58.371-30.847    c-0.418-0.221-0.851-0.412-1.295-0.571c-2.679-0.963-4.479-3.511-4.479-6.343c0-0.765,0.137-1.534,0.404-2.28    c0.608-1.697,1.842-3.055,3.471-3.825c1.546-0.731,3.273-0.846,4.894-0.335l48.297,21.22c2.487,1.091,5.306,1.131,7.821,0.107    c2.515-1.023,4.507-3.021,5.524-5.537l6.979-17.268c1.639-1.878,4.03-2.976,6.561-2.976h63.926c2.769,0,5.376,1.321,7.017,3.546    l41.897,66.825c0.088,0.142,0.181,0.279,0.274,0.416c0.801,1.146,1.224,2.481,1.224,3.86V390.866z M401.255,263.315    c2.263,0.214,7.508,3.506,13.018,7.929c-5.488,4.398-10.76,7.727-12.927,7.934c-4.368,0-7.92-3.558-7.92-7.93    S396.979,263.318,401.255,263.315z M386.598,295.039c4.286,2.668,9.339,4.216,14.748,4.216c12.697,0,28.765-14.608,35.083-20.888    c1.3-1.29,2.197-2.902,2.641-4.647v32.3l-30.416,13.37l-3.613-8.939c-0.282-0.7-0.644-1.365-1.075-1.985    c-4.372-6.263-11.025-10.472-18.415-11.823C385.912,296.118,386.259,295.581,386.598,295.039z M348.424,246.323    c13.744,0,24.925,11.182,24.925,24.925s-11.182,24.925-24.925,24.925c-13.749,0-24.935-11.182-24.935-24.925    S334.675,246.323,348.424,246.323z M459.847,333.488c-0.444,0.16-0.877,0.351-1.295,0.571l-58.371,30.847l-0.014-0.491    c-0.148-5.443-4.604-9.766-10.031-9.766c-0.046,0-0.093,0-0.14,0.001c-5.491,0.074-9.902,4.546-9.902,10.037v61.265v65.973    h-21.633v-65.973c0-5.543-4.495-10.038-10.038-10.038c-5.543,0-10.038,4.495-10.038,10.038v65.973h-21.642v-65.973v-61.245    c0-4.563-3.078-8.554-7.493-9.71c-4.417-1.159-9.055,0.809-11.293,4.785l-19.88,35.311c-1.028,1.305-2.479,2.174-4.126,2.464    c-1.77,0.314-3.559-0.084-5.034-1.118c-1.802-1.263-2.878-3.334-2.878-5.551c0.004-1.376,0.429-2.709,1.228-3.855    c0.092-0.135,0.183-0.272,0.27-0.411l41.897-66.825c1.641-2.225,4.248-3.546,7.017-3.546h63.926c2.531,0,4.922,1.1,6.559,2.981    l6.981,17.273c1.018,2.517,3.01,4.514,5.525,5.537c2.516,1.024,5.336,0.984,7.822-0.108l48.296-21.229    c1.621-0.51,3.347-0.395,4.893,0.335c1.629,0.77,2.863,2.127,3.469,3.818c0.27,0.752,0.406,1.522,0.406,2.286    C464.327,329.976,462.527,332.525,459.847,333.488z" fill="#af58e8"/>
	</g>
</g>
<g>
	<g>
		<path d="M277.814,69.456c-7.744,0-15.167,1.898-21.816,5.537c-6.656-3.64-14.08-5.537-21.821-5.537    c-25.185,0-45.675,20.489-45.675,45.675c0,36.187,38.635,58.095,55.134,67.451c2.259,1.28,5.062,2.87,5.851,3.459    c1.875,1.6,4.194,2.4,6.513,2.4c2.321,0,4.642-0.802,6.518-2.404c0.789-0.589,3.594-2.18,5.853-3.462    c16.494-9.356,55.117-31.266,55.117-67.444C323.488,89.945,302.999,69.456,277.814,69.456z M258.467,165.111    c-0.891,0.506-1.711,0.971-2.468,1.404c-0.755-0.433-1.572-0.896-2.459-1.4c-14.594-8.275-44.96-25.495-44.96-49.985    c-0.001-14.113,11.482-25.597,25.597-25.597c5.729,0,11.148,1.855,15.672,5.363c3.623,2.809,8.689,2.806,12.309-0.005    c4.513-3.504,9.927-5.357,15.657-5.357c14.115,0,25.598,11.483,25.598,25.598C303.413,139.616,273.055,156.836,258.467,165.111z" fill="#af58e8"/>
	</g>
</g>
<g>
	<g>
		<path d="M473.834,9.704c-12.918,0-12.94,20.077,0,20.077C486.752,29.781,486.773,9.704,473.834,9.704z" fill="#af58e8"/>
	</g>
</g>
<g>
</g>
<g>
</g>
<g>
</g>
<g>
</g>
<g>
</g>
<g>
</g>
<g>
</g>
<g>
</g>
<g>
</g>
<g>
</g>
<g>
</g>
<g>
</g>
<g>
</g>
<g>
</g>
<g>
</g>
</svg>
